<svg enable-background="new 0 0 426 235" height="234.687292" viewBox="0 0 426 235" width="426.098913" xmlns="http://www.w3.org/2000/svg"><path d="m0 .4h426v234.6h-426z" fill="#0c254c"/><g fill="#fff"><circle cx="79.4" cy="84.3" r="6.5"/><path d="m118.8 98.1h-23.8v9.1h19.4c7.3 0 10.5 1.5 10.5 7.1v1.1h-15.3c-12.3 0-17.5 3.8-17.5 14 0 8.1 4.8 12.7 13.6 12.7h31.2v-27.5c0-10.9-6.1-16.5-18.1-16.5zm6.1 35.1h-14.5c-4.3 0-6.3-.5-6.3-4.2 0-3.9 2.3-4.9 7.2-4.9h13.7v9.1z"/><path d="m173.1 132.4h-9.3c-6.3 0-7.7-1.5-7.7-8.1v-26.2h-11.5v27.1c0 12.3 5.4 16.9 18.3 16.9h10.3v.8c0 4-2.4 6.3-6.9 6.3h-20.8v8.9h22.8c11.3 0 16.5-5.6 16.5-17.1v-42.9h-11.6v34.3z"/><path d="m74 139.5c0 6.2-1.3 9.3-5.8 9.3h-5.1v9.3h7.5c10.8 0 15.5-5.8 15.5-18.1v-41.9h-12.1z"/><path d="m305.4 98.1h-19.5v44h11.6v-35.5h4.1c3.8 0 5.1.4 5.1 4.3v5.7h11.1v-7.3c0-8.3-3.2-11.2-12.4-11.2z"/><path d="m259.6 98.1h-23.8v9.1h19.4c7.3 0 10.5 1.5 10.5 7.1v1.1h-15.3c-12.3 0-17.5 3.8-17.5 14 0 8.1 4.8 12.7 13.6 12.7h31.2v-27.5c0-10.9-6.1-16.5-18.1-16.5zm6.2 35.1h-14.5c-4.3 0-6.3-.5-6.3-4.2 0-3.9 2.3-4.9 7.2-4.9h13.7v9.1z"/><path d="m197.1 103.4c-4.1 3.9-6.5 10-6.5 16.9 0 6.6 2.5 12.6 6.5 16.5 4.1 4 9.3 5.3 16.5 5.3h15.8v-9.4h-12.4c-3.9 0-6.8 0-9.2-1.4-3.6-2.2-5.2-5.7-5.2-10.9 0-10.2 4.4-12.7 14.4-12.7h12.3v-9.5h-15.8c-7.1-.1-12.3 1.2-16.4 5.2z"/></g><path d="m326.3 99.6c-1.8 0-3.3-1.5-3.3-3.3s1.5-3.3 3.3-3.3 3.3 1.5 3.3 3.3-1.5 3.3-3.3 3.3z" fill="#8bc53f"/><path d="m348 83.3c0-2.2 1.8-4 4-4s4 1.8 4 4-1.8 4-4 4-4-1.8-4-4" fill="none"/><path d="m346.8 110.1c0-2.2 1.8-4 4-4s4 1.8 4 4-1.8 4-4 4-4-1.8-4-4" fill="none"/><path d="m328.1 82.1c0-2.2 1.8-4 4-4s4 1.8 4 4-1.8 4-4 4-4-1.7-4-4" fill="none"/><path d="m346.8 110.1c0-2.2 1.8-4 4-4s4 1.8 4 4-1.8 4-4 4-4-1.8-4-4z" fill="#fff"/><path d="m328.1 82.1c0-2.2 1.8-4 4-4s4 1.8 4 4-1.8 4-4 4-4-1.8-4-4z" fill="#fff"/><path d="m356.7 98.4c0-2.2 1.8-4 4-4s4 1.8 4 4-1.8 4-4 4-4-1.8-4-4z" fill="#fff"/><path d="m322.3 96.3c0-2.2 1.8-4 4-4s4 1.8 4 4-1.8 4-4 4-4-1.8-4-4z" fill="#fff"/><path d="m325 117.4c0-2.3 1.8-4.2 4-4.2s4 1.9 4 4.2-1.8 4.2-4 4.2c-2.2-.1-4-1.9-4-4.2" fill="none"/><path d="m348 83.3c0-2.2 1.8-4 4-4s4 1.8 4 4-1.8 4-4 4-4-1.8-4-4z" fill="#fff"/><path d="m325 117.4c0-2.2 1.8-4 4-4s4 1.8 4 4-1.8 4-4 4-4-1.8-4-4z" fill="#fff"/><path d="m336.5 97.1c0-3.2 2.6-5.9 5.9-5.9 3.2 0 5.9 2.6 5.9 5.9 0 3.2-2.6 5.9-5.9 5.9s-5.9-2.7-5.9-5.9z" fill="#fff"/><path d="m348 83.3c0-2.2 1.8-4 4-4s4 1.8 4 4-1.8 4-4 4-4-1.8-4-4" fill="none"/><path d="m346.8 110.1c0-2.2 1.8-4 4-4s4 1.8 4 4-1.8 4-4 4-4-1.8-4-4" fill="none"/><path d="m328.1 82.1c0-2.2 1.8-4 4-4s4 1.8 4 4-1.8 4-4 4-4-1.7-4-4" fill="none"/><path d="m348 83.3c0-2.2 1.8-4 4-4s4 1.8 4 4-1.8 4-4 4-4-1.8-4-4" fill="none"/><path d="m346.8 110.1c0-2.2 1.8-4 4-4s4 1.8 4 4-1.8 4-4 4-4-1.8-4-4" fill="none"/><path d="m348 83.3c0-2.2 1.8-4 4-4s4 1.8 4 4-1.8 4-4 4-4-1.8-4-4" fill="none"/><path d="m346.8 110.1c0-2.2 1.8-4 4-4s4 1.8 4 4-1.8 4-4 4-4-1.8-4-4" fill="none"/><path d="m360.7 93.7c-2.2 0-4.1 1.6-4.6 3.7l-25.2-2c-.4-2.2-2.3-3.9-4.6-3.9-2.6 0-4.7 2.1-4.7 4.7s2.1 4.7 4.7 4.7c2.4 0 4.4-1.8 4.7-4.1l25 2c.2 2.4 2.2 4.3 4.7 4.3 2.6 0 4.7-2.1 4.7-4.7s-2.1-4.7-4.7-4.7zm-34.4 5.9c-1.8 0-3.3-1.5-3.3-3.3s1.5-3.3 3.3-3.3 3.3 1.5 3.3 3.3-1.5 3.3-3.3 3.3zm34.4 2.1c-1.8 0-3.3-1.5-3.3-3.3s1.5-3.3 3.3-3.3 3.3 1.5 3.3 3.3-1.5 3.3-3.3 3.3z" fill="#95c11f"/><path d="m325 117.4c0-2.3 1.8-4.2 4-4.2s4 1.9 4 4.2-1.8 4.2-4 4.2c-2.2-.1-4-1.9-4-4.2" fill="none"/><path d="m352 78.6c-2.6 0-4.7 2.1-4.7 4.7 0 1.4.6 2.6 1.5 3.4l-17.8 26.4c-.6-.3-1.3-.5-2-.5-2.6 0-4.7 2.1-4.7 4.7s2.1 4.7 4.7 4.7 4.7-2.1 4.7-4.7c0-1.4-.6-2.6-1.5-3.5l17.8-26.3c.6.3 1.3.5 2.1.5 2.6 0 4.7-2.1 4.7-4.7-.1-2.6-2.2-4.7-4.8-4.7zm-19.7 38.8c0 1.8-1.5 3.3-3.3 3.3s-3.3-1.5-3.3-3.3 1.5-3.3 3.3-3.3 3.3 1.4 3.3 3.3zm19.7-30.8c-1.8 0-3.3-1.5-3.3-3.3s1.5-3.3 3.3-3.3 3.3 1.5 3.3 3.3c.1 1.8-1.4 3.3-3.3 3.3z" fill="#f18805"/><path d="m350.8 105.4c-.7 0-1.4.2-2 .4l-13.6-20.2c1-.9 1.6-2.1 1.6-3.5 0-2.6-2.1-4.7-4.7-4.7s-4.7 2.1-4.7 4.7 2.1 4.7 4.7 4.7c.7 0 1.4-.2 2-.4l13.6 20.2c-1 .9-1.6 2.1-1.6 3.5 0 2.6 2.1 4.7 4.7 4.7s4.7-2.1 4.7-4.7-2.1-4.7-4.7-4.7zm-22-23.3c0-1.8 1.5-3.3 3.3-3.3s3.3 1.5 3.3 3.3-1.5 3.3-3.3 3.3c-1.8.1-3.3-1.4-3.3-3.3zm22 31.3c-1.8 0-3.3-1.5-3.3-3.3s1.5-3.3 3.3-3.3 3.3 1.5 3.3 3.3c.1 1.8-1.4 3.3-3.3 3.3z" fill="#951b81"/><path d="m336.5 97.1c0-3.2 2.6-5.9 5.9-5.9 3.2 0 5.9 2.6 5.9 5.9 0 3.2-2.6 5.9-5.9 5.9s-5.9-2.7-5.9-5.9z" fill="#fff"/><path d="m342.3 103.5c-3.6 0-6.5-2.9-6.5-6.5s2.9-6.5 6.5-6.5 6.5 2.9 6.5 6.5-2.9 6.5-6.5 6.5zm0-11.7c-2.9 0-5.3 2.4-5.3 5.3s2.4 5.3 5.3 5.3 5.3-2.4 5.3-5.3-2.3-5.3-5.3-5.3z" fill="#009fe3"/></svg>